# xmcd CD database file
#
# Track frame offsets:
#	180
#	12177
#	23786
#	33611
#	46139
#	55627
#	74539
#	87761
#	103624
#	116763
#	132506
#	152133
#	168397
#	182631
#	199061
#	214225
#	229848
#	244213
#
# Disc length: 3515 seconds
#
# Revision: 6
# Processed by: cddbd v1.5PL3 Copyright (c) Steve Scherf et al.
# Submitted via: CDex 1.51
#
DISCID=f80db912
DTITLE=Various Artist - Your Cheatin' Heart
DYEAR=2000
DGENRE=Country
TTITLE0=Your Cheatin' Heart
TTITLE1=Is It Still Over?
TTITLE2=Last Date
TTITLE3=Stand By Your Man
TTITLE4=Tennessee Waltz
TTITLE5=She Keeps The Home Fires Burning
TTITLE6=Java
TTITLE7=The Wind Beneath My Wings
TTITLE8=Grandpa
TTITLE9=Deep River Woman
TTITLE10=New Fool At An Old Game
TTITLE11=To Me
TTITLE12=Blue Bayou
TTITLE13=I Know
TTITLE14=God Bless The U.S.A.
TTITLE15=Slow Hand
TTITLE16=Burnin' A Hole In My Heart
TTITLE17=Twenty Years Ago
EXTD=YEAR: 2000
EXTT0=
EXTT1=
EXTT2=
EXTT3=
EXTT4=
EXTT5=
EXTT6=
EXTT7=
EXTT8=
EXTT9=
EXTT10=
EXTT11=
EXTT12=
EXTT13=
EXTT14=
EXTT15=
EXTT16=
EXTT17=
PLAYORDER=
